<svg width="25" height="25" viewBox="0 0 25 25" fill="none" xmlns="http://www.w3.org/2000/svg">
<path d="M18.0426 8.07362V0.844044C18.0426 0.377879 17.6927 0 17.2267 0H13.0627V6.38832C14.9196 6.49298 16.6077 7.07495 18.0426 8.07362Z" fill="#3AFF66"/>
<path d="M11.7967 0H7.68898C7.2229 0 6.81683 0.377879 6.81683 0.844044V8.13161C8.33611 7.11344 10.0242 6.51349 11.7967 6.39338V0Z" fill="#3AFF66"/>
<path d="M12.4999 7.63647C7.70518 7.63647 3.81836 11.5234 3.81836 16.3182C3.81836 21.1131 7.70527 25 12.4999 25C17.2949 25 21.1817 21.1131 21.1817 16.3182C21.1817 11.5234 17.2948 7.63647 12.4999 7.63647ZM16.6705 17.6725L17.2269 20.9176C17.3084 21.3926 17.1131 21.8725 16.7232 22.1559C16.5027 22.3161 16.2414 22.3976 15.9789 22.3976C15.7775 22.3976 15.5751 22.3496 15.3899 22.2521L12.4761 20.7201L9.56183 22.2522C9.37656 22.3495 9.17424 22.3976 8.97277 22.3976C8.71027 22.3976 8.44896 22.3161 8.22841 22.1558C7.83854 21.8726 7.64332 21.3925 7.72477 20.9175L8.28158 17.6725L5.92383 15.3745C5.5787 15.0382 5.45446 14.5349 5.60343 14.0766C5.7524 13.6182 6.1486 13.2841 6.62548 13.2148L9.88358 12.7416L11.3407 9.78921C11.554 9.35706 11.9942 9.0835 12.4761 9.0835C12.958 9.0835 13.3981 9.35706 13.6114 9.78921L15.0685 12.7417L18.3264 13.2149C18.8033 13.2841 19.1995 13.6182 19.3484 14.0765C19.4974 14.5349 19.3732 15.0381 19.028 15.3744L16.6705 17.6725Z" fill="#3AFF66"/>
<path d="M12.476 19.2897L15.979 21.1316L15.3101 17.2305L18.1443 14.4679L14.2277 13.8989L12.476 10.3496L10.7243 13.8989L6.80743 14.4679L9.64182 17.2305L8.97258 21.1316L12.476 19.2897Z" fill="#3AFF66"/>
</svg>
