<svg width="24" height="24" viewBox="0 0 24 24" fill="none" xmlns="http://www.w3.org/2000/svg">
<path d="M19.2 17.088V17.76C19.2 18.552 18.552 19.2 17.76 19.2H6.24005C5.44805 19.2 4.80005 18.552 4.80005 17.76V17.088C4.80005 15.336 6.84005 14.28 8.76005 13.44C8.83205 13.416 8.88005 13.392 8.95205 13.344C9.09605 13.272 9.26405 13.272 9.40805 13.368C10.176 13.872 11.064 14.16 12 14.16C12.936 14.16 13.824 13.872 14.592 13.392C14.736 13.296 14.904 13.296 15.048 13.368C15.12 13.392 15.168 13.416 15.24 13.464C17.16 14.28 19.2 15.336 19.2 17.088Z" fill="white"/>
<path d="M12.0001 12.72C13.975 12.72 15.5761 10.947 15.5761 8.75999C15.5761 6.57294 13.975 4.79999 12.0001 4.79999C10.0251 4.79999 8.42407 6.57294 8.42407 8.75999C8.42407 10.947 10.0251 12.72 12.0001 12.72Z" fill="white"/>
</svg>
